<svg width="498" height="104" viewBox="0 0 498 104" fill="none" xmlns="http://www.w3.org/2000/svg">
<path fill-rule="evenodd" clip-rule="evenodd" d="M497.92 33.1753V98.9438H472.311V33.1753C472.311 31.7202 471.147 30.8472 469.983 30.8472H428.369C426.913 30.8472 426.04 32.0112 426.04 33.1753V98.9438H400.431V33.1753C400.431 18.9157 412.072 6.98427 426.622 6.98427H472.02C486.28 6.98427 497.92 18.9157 497.92 33.1753ZM392.283 52.091C392.283 64.3135 382.098 74.4989 369.875 74.4989C366.674 74.4989 363.764 73.9169 361.145 72.7528C362.309 75.3719 362.891 78.282 362.891 81.1921C362.891 93.4146 352.997 103.6 340.774 103.6H340.483C328.261 103.6 318.075 93.4146 318.075 81.1921C318.075 78.282 318.657 75.3719 319.53 72.7528C316.911 73.9169 314.292 74.4989 311.091 74.4989C302.943 74.4989 295.667 70.1337 291.884 63.4404C289.847 59.9483 288.683 56.1652 288.683 51.8C288.683 47.7258 289.847 43.6517 291.884 40.4506C295.667 34.0483 302.943 29.6831 311.091 29.6831C314.001 29.6831 316.911 30.2652 319.53 31.4292C318.366 28.8101 317.784 25.9 317.784 22.6989C317.784 10.4764 327.97 0.291011 340.192 0.291011H340.483C352.706 0.291011 362.6 10.4764 362.6 22.6989C362.6 25.9 362.018 28.8101 360.854 31.4292C363.473 30.2652 366.674 29.6831 369.875 29.6831C382.389 29.6831 392.283 39.5775 392.283 52.091ZM347.467 51.8C347.467 48.5989 348.049 45.6888 349.214 43.0697C346.594 44.2337 343.684 44.8157 340.483 44.8157H340.192C337.282 44.8157 334.372 44.2337 331.753 43.0697C332.917 45.6888 333.499 48.8899 333.499 51.8C333.499 54.7101 332.917 57.6202 331.753 60.2393C334.372 59.0753 337.282 58.4933 340.192 58.4933H340.483C343.393 58.4933 346.303 59.0753 348.922 60.2393C348.049 57.9112 347.467 55.0011 347.467 51.8ZM293.921 30.5562V7.56629H198.47V30.5562H233.682V99.2348H260.164V30.5562H293.921ZM0 99.2348H26.773V7.27528L0 7.56629V99.2348ZM59.6573 52.382L108.256 13.3865L115.531 7.56629H77.991L40.7416 37.8315C38.7045 39.5775 36.9584 41.0326 35.2124 43.3607C33.1753 45.9798 32.0112 48.8899 31.7202 51.509C31.4292 55.0011 32.3022 58.4933 34.3393 61.6944C36.0854 64.6045 37.8315 66.0595 40.4506 68.0966L77.7 99.2348H117.569L108.256 91.6685L59.6573 52.382ZM200.216 42.1966C201.671 45.1067 202.253 48.3079 202.253 51.8C202.253 55.2921 201.38 58.4933 200.216 61.4034C196.724 68.9697 188.866 74.2079 179.845 74.2079C176.644 74.2079 173.734 73.6258 171.115 72.4618C172.279 75.0809 172.861 77.991 172.861 80.9011C172.861 93.1236 162.966 103.309 150.453 103.309H150.162C137.939 103.309 127.754 93.1236 127.754 80.9011C127.754 77.991 128.336 75.0809 129.5 72.4618C126.881 73.6258 123.971 74.2079 121.061 74.2079C116.113 74.2079 111.457 72.4618 107.965 69.8427C102.436 65.7685 98.6528 59.0753 98.6528 51.8C98.6528 44.5247 102.436 37.8315 107.965 33.7573C111.748 31.1382 116.404 29.3921 121.061 29.3921C123.971 29.3921 126.881 29.9742 129.5 31.1382C128.336 28.5191 127.754 25.318 127.754 22.4079C127.754 10.1854 137.939 0 150.162 0H150.453C162.675 0 172.861 10.1854 172.861 22.4079C172.861 25.609 172.279 28.5191 171.115 31.1382C173.734 29.9742 176.935 29.3921 180.136 29.3921C188.866 29.3921 196.724 34.6303 200.216 42.1966ZM157.728 51.8C157.728 48.5989 158.31 45.6888 159.474 43.0697C156.855 44.2337 153.945 44.8157 150.744 44.8157H150.453C147.543 44.8157 144.633 44.2337 142.013 43.0697C143.178 45.6888 143.76 48.8899 143.76 51.8C143.76 54.7101 143.178 57.6202 142.013 60.2393C144.633 59.0753 147.252 58.4933 150.453 58.4933H150.744C153.654 58.4933 156.564 59.0753 159.183 60.2393C158.31 57.6202 157.728 55.0011 157.728 51.8Z" fill="#231F20"/>
</svg>
