<svg width="53" height="52" viewBox="0 0 53 52" fill="none" xmlns="http://www.w3.org/2000/svg">
<path fill-rule="evenodd" clip-rule="evenodd" d="M38.3113 27.0107C37.5819 26.3304 36.7339 25.7864 35.7661 25.3776C34.7983 24.9698 33.7626 24.7654 32.6567 24.7654C31.5508 24.7654 30.5139 24.9698 29.5461 25.3776C28.5784 25.7864 27.7303 26.3304 27.0021 27.0107C26.2727 27.6921 25.6944 28.4762 25.2672 29.3674C24.8399 30.2586 24.6263 31.1866 24.6263 32.1514C24.6263 33.3638 24.8399 34.4767 25.2672 35.4912C25.6944 36.5068 26.2727 37.3839 27.0021 38.1269C27.7303 38.8689 28.5784 39.4508 29.5461 39.8715C30.5139 40.2922 31.5508 40.502 32.6567 40.502C33.7626 40.502 34.7983 40.2922 35.7661 39.8715C36.7339 39.4508 37.5819 38.8689 38.3113 38.1269C39.0395 37.3839 39.6178 36.5068 40.0451 35.4912C40.4723 34.4767 40.686 33.3638 40.686 32.1514C40.686 31.1866 40.4723 30.2586 40.0451 29.3674C39.6178 28.4762 39.0395 27.6921 38.3113 27.0107ZM35.4823 17.9505L26.3774 0L0 52H52.7536L46.5423 39.7547C45.8464 41.0525 44.9822 42.2109 43.9475 43.2297C42.5525 44.6033 40.8931 45.6675 38.9705 46.4213C37.0478 47.1763 34.9429 47.5537 32.6566 47.5537C30.3693 47.5537 28.2644 47.1763 26.3417 46.4213C24.4191 45.6675 22.7608 44.6033 21.3658 43.2297C19.9707 41.8561 18.8832 40.2295 18.1053 38.3497C17.3252 36.4689 16.9358 34.3912 16.9358 32.1135C16.9358 30.0109 17.3695 28.075 18.2369 26.3055C19.1033 24.5372 20.2664 23.0155 21.724 21.7403C23.1816 20.4662 24.8582 19.4766 26.7571 18.7714C28.6539 18.0663 30.6207 17.7137 32.6566 17.7137C33.6136 17.7137 34.5555 17.7948 35.4823 17.9505Z" fill="#D2282E"/>
</svg>
