<svg width="249" height="31" viewBox="0 0 249 31" fill="none" xmlns="http://www.w3.org/2000/svg">
<path d="M13 29V22.56H1.04V17.76L14.68 0.599998H18.36V17.72H21.88V22.56H18.36V29H13ZM6.44 17.72H13.6V8.68L6.44 17.72ZM25.7575 29V23.24H30.1575V29H25.7575ZM54.8219 20.6C54.8219 21.9333 54.5419 23.1333 53.9819 24.2C53.4485 25.2667 52.7019 26.1867 51.7419 26.96C50.8085 27.7333 49.7152 28.3333 48.4619 28.76C47.2085 29.16 45.8752 29.36 44.4619 29.36C43.0485 29.36 41.7152 29.1467 40.4619 28.72C39.2085 28.2667 38.1152 27.64 37.1819 26.84C36.2485 26.04 35.5152 25.0933 34.9819 24C34.4485 22.9067 34.1819 21.7067 34.1819 20.4C34.1819 19.6 34.3152 18.8667 34.5819 18.2C34.8485 17.5067 35.1952 16.88 35.6219 16.32C36.0485 15.76 36.5152 15.2667 37.0219 14.84C37.5552 14.4133 38.0885 14.0667 38.6219 13.8C37.6352 13.32 36.7952 12.6 36.1019 11.64C35.4085 10.68 35.0619 9.62667 35.0619 8.48C35.0619 7.2 35.3419 6.08 35.9019 5.12C36.4885 4.13333 37.2352 3.30667 38.1419 2.64C39.0752 1.97333 40.0885 1.46667 41.1819 1.12C42.3019 0.773332 43.4085 0.599998 44.5019 0.599998C45.5685 0.599998 46.6619 0.773332 47.7819 1.12C48.9285 1.44 49.9552 1.93333 50.8619 2.6C51.7685 3.26666 52.5152 4.09333 53.1019 5.08C53.6885 6.04 53.9819 7.16 53.9819 8.44C53.9819 9 53.8885 9.56 53.7019 10.12C53.5152 10.6533 53.2485 11.16 52.9019 11.64C52.5819 12.0933 52.1952 12.5067 51.7419 12.88C51.2885 13.2533 50.8085 13.56 50.3019 13.8C50.8885 14.0933 51.4485 14.4667 51.9819 14.92C52.5152 15.3467 52.9952 15.8533 53.4219 16.44C53.8485 17 54.1819 17.6267 54.4219 18.32C54.6885 19.0133 54.8219 19.7733 54.8219 20.6ZM49.3819 20.28C49.3819 19.6133 49.2352 19.0133 48.9419 18.48C48.6752 17.9467 48.3019 17.5067 47.8219 17.16C47.3685 16.7867 46.8485 16.5067 46.2619 16.32C45.6752 16.1333 45.0752 16.04 44.4619 16.04C43.8219 16.04 43.2085 16.1467 42.6219 16.36C42.0352 16.5467 41.5152 16.8267 41.0619 17.2C40.6352 17.5733 40.2885 18.0267 40.0219 18.56C39.7552 19.0667 39.6219 19.64 39.6219 20.28C39.6219 20.92 39.7552 21.5067 40.0219 22.04C40.3152 22.5467 40.6885 22.9867 41.1419 23.36C41.5952 23.7333 42.1152 24.0267 42.7019 24.24C43.2885 24.4267 43.8885 24.52 44.5019 24.52C45.1419 24.52 45.7552 24.4133 46.3419 24.2C46.9285 23.9867 47.4485 23.6933 47.9019 23.32C48.3552 22.9467 48.7152 22.5067 48.9819 22C49.2485 21.4667 49.3819 20.8933 49.3819 20.28ZM40.5019 8.64C40.5019 9.2 40.6219 9.69333 40.8619 10.12C41.1019 10.52 41.4085 10.8667 41.7819 11.16C42.1819 11.4267 42.6085 11.64 43.0619 11.8C43.5419 11.9333 44.0219 12 44.5019 12C44.9552 12 45.4219 11.9333 45.9019 11.8C46.3819 11.64 46.8085 11.4133 47.1819 11.12C47.5819 10.8267 47.9019 10.48 48.1419 10.08C48.3819 9.65333 48.5019 9.16 48.5019 8.6C48.5019 7.61333 48.1019 6.82667 47.3019 6.24C46.5285 5.65333 45.5819 5.36 44.4619 5.36C43.3685 5.36 42.4352 5.66667 41.6619 6.28C40.8885 6.86667 40.5019 7.65333 40.5019 8.64Z" fill="#002856"/>
<g clip-path="url(#clip0_2_844)">
<path d="M76.2 30.2249L85.6292 1.0332L95.0584 30.2249L70.2584 12.1415H101L76.2 30.2249Z" fill="#F8D64E"/>
</g>
<g clip-path="url(#clip1_2_844)">
<path d="M113.2 30.2249L122.629 1.0332L132.058 30.2249L107.258 12.1415H138L113.2 30.2249Z" fill="#F8D64E"/>
</g>
<g clip-path="url(#clip2_2_844)">
<path d="M150.2 30.2249L159.629 1.0332L169.058 30.2249L144.258 12.1415H175L150.2 30.2249Z" fill="#F8D64E"/>
</g>
<g clip-path="url(#clip3_2_844)">
<path d="M187.2 30.2249L196.629 1.0332L206.058 30.2249L181.258 12.1415H212L187.2 30.2249Z" fill="#F8D64E"/>
</g>
<g clip-path="url(#clip4_2_844)">
<path d="M224.2 30.2249L233.629 1.0332L243.058 30.2249L218.258 12.1415H249L224.2 30.2249Z" fill="#F8D64E"/>
</g>
<g clip-path="url(#clip5_2_844)">
<path d="M224.2 30.2249L233.629 1.0332L243.058 30.2249L218.258 12.1415H249L224.2 30.2249Z" fill="#F8D64E"/>
</g>
<defs>
<clipPath id="clip0_2_844">
<rect width="31" height="31" fill="white" transform="translate(70)"/>
</clipPath>
<clipPath id="clip1_2_844">
<rect width="31" height="31" fill="white" transform="translate(107)"/>
</clipPath>
<clipPath id="clip2_2_844">
<rect width="31" height="31" fill="white" transform="translate(144)"/>
</clipPath>
<clipPath id="clip3_2_844">
<rect width="31" height="31" fill="white" transform="translate(181)"/>
</clipPath>
<clipPath id="clip4_2_844">
<rect width="31" height="31" fill="white" transform="translate(218)"/>
</clipPath>
<clipPath id="clip5_2_844">
<rect width="31" height="31" fill="white" transform="translate(218)"/>
</clipPath>
</defs>
</svg>
