<svg xmlns="http://www.w3.org/2000/svg" width="187.159" height="48" viewBox="0 0 187.159 48">
  <g id="akinon-logo" transform="translate(-85 -26)">
    <g id="akinon_logo" data-name="akinon logo" transform="translate(85 26)">
      <path id="Fill_4" data-name="Fill 4" d="M48.722,48H0L24.362,0l8.409,16.57a15.771,15.771,0,0,0-2.609-.219,15.6,15.6,0,0,0-5.449.976,14.913,14.913,0,0,0-4.649,2.741,13.4,13.4,0,0,0-3.22,4.214,12.066,12.066,0,0,0-1.2,5.361,14.94,14.94,0,0,0,1.08,5.756,13.316,13.316,0,0,0,7.607,7.451A15.91,15.91,0,0,0,30.162,43.9a15.905,15.905,0,0,0,5.831-1.045,13.546,13.546,0,0,0,4.6-2.947,13.336,13.336,0,0,0,2.4-3.208L48.722,48ZM30.162,37.387a7.17,7.17,0,0,1-2.873-.582,7.417,7.417,0,0,1-2.35-1.61,7.738,7.738,0,0,1-1.6-2.434,7.9,7.9,0,0,1-.591-3.082,5.906,5.906,0,0,1,.591-2.57,7.274,7.274,0,0,1,1.6-2.175,7.976,7.976,0,0,1,2.35-1.508,7.581,7.581,0,0,1,5.745,0,8,8,0,0,1,2.35,1.508,7.286,7.286,0,0,1,1.6,2.175,5.906,5.906,0,0,1,.591,2.57,7.9,7.9,0,0,1-.591,3.082,7.751,7.751,0,0,1-1.6,2.434,7.437,7.437,0,0,1-2.35,1.61A7.174,7.174,0,0,1,30.162,37.387Z" fill="#d2282e"/>
    </g>
    <path id="Fill_1" data-name="Fill 1" d="M95.586,24.22A11.861,11.861,0,0,1,83.532,12.11,11.861,11.861,0,0,1,95.586,0a12.09,12.09,0,0,1,8.547,3.422,12.048,12.048,0,0,1,3.54,8.689,12.047,12.047,0,0,1-3.54,8.688A12.09,12.09,0,0,1,95.586,24.22Zm0-20.6c-4.871,0-8.274,3.49-8.274,8.487s3.4,8.489,8.274,8.489a8.107,8.107,0,0,0,8.271-8.489C103.857,7.113,100.456,3.623,95.586,3.623Zm20.3,20.133H112.2V.464h3.452l8.538,11.48c.777,1.058,1.712,2.353,2.463,3.393.891,1.234,1.534,2.124,1.557,2.13h.032c.014-.014,0-.648-.012-1.607-.022-1.343-.055-3.374-.055-5.48V.464h3.685v23.29h-3.452L119.939,12.31c-1.192-1.637-2.366-3.3-3.142-4.4-.611-.867-.93-1.318-.946-1.32h-.032c-.013.013,0,.54.01,1.413.021,1.274.056,3.407.056,5.874v9.881Zm-52.96,0H59.244V.464h3.449l8.538,11.48c.792,1.078,1.744,2.4,2.509,3.455.926,1.281,1.493,2.064,1.512,2.069h.032c.015-.015,0-.684-.012-1.7-.021-1.328-.053-3.331-.053-5.391V.464H78.9v23.29h-3.45L66.978,12.31C65.783,10.667,64.607,9,63.829,7.895c-.6-.858-.921-1.3-.936-1.308h-.032c-.014.014-.006.538.01,1.488.022,1.346.055,3.379.055,5.8v9.881Zm-32.729,0H26.512V.464H30.2V5.891c0,2.393-.04,3.906-.062,4.718a6.442,6.442,0,0,0-.007.669h.033c.015,0,.308-.3.8-.807.669-.692,1.678-1.735,2.827-2.884L40.924.464H45.41l-9.634,9.649L45.9,23.754l-4.316,0L33.351,12.542,30.2,15.736v8.02Zm-26.243,0H0L9.83.464h3.42l9.829,23.29h-3.95l-2.157-5.29H6.111l-2.157,5.29ZM11.524,4.92c-.014,0-.117.3-.275.757-.211.612-.53,1.535-.821,2.272L7.44,15.241h8.2L12.653,7.949c-.284-.72-.585-1.592-.805-2.228-.167-.482-.277-.8-.292-.8ZM53.486,23.756H49.8V.464h3.684v23.29Z" transform="translate(140.297 38.11)" fill="#d2282e"/>
  </g>
</svg>
