<svg width="160" height="70" viewBox="0 0 160 70" fill="none" xmlns="http://www.w3.org/2000/svg">
<path d="M14.45 1.5H19.35L33.35 37H27.45L23.7 27.35H10L6.3 37H0.35L14.45 1.5ZM22.6 23.2L16.9 7.95L11 23.2H22.6ZM55.2402 37L46.8902 24.95L42.5402 29.05V37H37.0402V0.499999H42.5402V23.65L54.5402 10.9H60.5402L50.3902 21.85L61.0902 37H55.2402ZM64.4328 37V10.85H69.9328V37H64.4328ZM64.4328 6.55V0.499999H69.9328V6.55H64.4328ZM99.9922 37H94.4922V22.35C94.4922 19.8833 94.0922 18.1 93.2922 17C92.5255 15.8667 91.3755 15.3 89.8422 15.3C89.0422 15.3 88.2422 15.45 87.4422 15.75C86.6422 16.05 85.8922 16.4833 85.1922 17.05C84.4922 17.5833 83.8589 18.2333 83.2922 19C82.7589 19.7333 82.3422 20.55 82.0422 21.45V37H76.5422V10.85H81.5422V16.1C82.5422 14.3333 83.9922 12.95 85.8922 11.95C87.7922 10.9167 89.8922 10.4 92.1922 10.4C93.7589 10.4 95.0422 10.6833 96.0422 11.25C97.0422 11.8167 97.8255 12.6 98.3922 13.6C98.9922 14.5667 99.4089 15.7 99.6422 17C99.8755 18.2667 99.9922 19.6167 99.9922 21.05V37ZM118.126 37.5C116.06 37.5 114.193 37.1333 112.526 36.4C110.893 35.6667 109.493 34.6833 108.326 33.45C107.16 32.2167 106.26 30.7833 105.626 29.15C104.993 27.4833 104.676 25.75 104.676 23.95C104.676 22.15 104.993 20.4333 105.626 18.8C106.26 17.1333 107.16 15.6833 108.326 14.45C109.526 13.2167 110.943 12.2333 112.576 11.5C114.243 10.7667 116.093 10.4 118.126 10.4C120.16 10.4 121.993 10.7667 123.626 11.5C125.293 12.2333 126.71 13.2167 127.876 14.45C129.076 15.6833 129.993 17.1333 130.626 18.8C131.26 20.4333 131.576 22.15 131.576 23.95C131.576 25.75 131.26 27.4833 130.626 29.15C129.993 30.7833 129.076 32.2167 127.876 33.45C126.71 34.6833 125.293 35.6667 123.626 36.4C121.993 37.1333 120.16 37.5 118.126 37.5ZM110.326 24C110.326 25.2667 110.526 26.4333 110.926 27.5C111.326 28.5667 111.876 29.5 112.576 30.3C113.276 31.0667 114.093 31.6833 115.026 32.15C115.993 32.5833 117.026 32.8 118.126 32.8C119.226 32.8 120.243 32.5833 121.176 32.15C122.143 31.6833 122.976 31.05 123.676 30.25C124.376 29.45 124.926 28.5167 125.326 27.45C125.726 26.3833 125.926 25.2167 125.926 23.95C125.926 22.7167 125.726 21.5667 125.326 20.5C124.926 19.4 124.376 18.45 123.676 17.65C122.976 16.85 122.143 16.2333 121.176 15.8C120.243 15.3333 119.226 15.1 118.126 15.1C117.06 15.1 116.043 15.3333 115.076 15.8C114.143 16.2667 113.326 16.9 112.626 17.7C111.926 18.5 111.36 19.45 110.926 20.55C110.526 21.6167 110.326 22.7667 110.326 24ZM159.904 37H154.404V22.35C154.404 19.8833 154.004 18.1 153.204 17C152.438 15.8667 151.288 15.3 149.754 15.3C148.954 15.3 148.154 15.45 147.354 15.75C146.554 16.05 145.804 16.4833 145.104 17.05C144.404 17.5833 143.771 18.2333 143.204 19C142.671 19.7333 142.254 20.55 141.954 21.45V37H136.454V10.85H141.454V16.1C142.454 14.3333 143.904 12.95 145.804 11.95C147.704 10.9167 149.804 10.4 152.104 10.4C153.671 10.4 154.954 10.6833 155.954 11.25C156.954 11.8167 157.738 12.6 158.304 13.6C158.904 14.5667 159.321 15.7 159.554 17C159.788 18.2667 159.904 19.6167 159.904 21.05V37ZM1.44 65V52.22H5.976C7.008 52.22 7.908 52.388 8.676 52.724C9.456 53.06 10.104 53.516 10.62 54.092C11.148 54.668 11.544 55.346 11.808 56.126C12.072 56.894 12.204 57.716 12.204 58.592C12.204 59.564 12.054 60.446 11.754 61.238C11.466 62.018 11.052 62.69 10.512 63.254C9.972 63.806 9.318 64.238 8.55 64.55C7.782 64.85 6.924 65 5.976 65H1.44ZM10.152 58.592C10.152 57.92 10.056 57.302 9.864 56.738C9.684 56.174 9.414 55.694 9.054 55.298C8.694 54.89 8.256 54.572 7.74 54.344C7.224 54.116 6.636 54.002 5.976 54.002H3.456V63.218H5.976C6.648 63.218 7.242 63.104 7.758 62.876C8.286 62.636 8.724 62.312 9.072 61.904C9.432 61.484 9.702 60.992 9.882 60.428C10.062 59.864 10.152 59.252 10.152 58.592ZM14.0728 65V55.586H16.0528V65H14.0728ZM14.0728 54.038V51.86H16.0528V54.038H14.0728ZM22.1581 65.09C21.5221 65.09 20.9401 64.964 20.4121 64.712C19.8841 64.448 19.4281 64.094 19.0441 63.65C18.6721 63.206 18.3781 62.696 18.1621 62.12C17.9581 61.544 17.8561 60.938 17.8561 60.302C17.8561 59.63 17.9641 59 18.1801 58.412C18.3961 57.812 18.6961 57.296 19.0801 56.864C19.4641 56.42 19.9201 56.072 20.4481 55.82C20.9881 55.556 21.5821 55.424 22.2301 55.424C22.9861 55.424 23.6461 55.604 24.2101 55.964C24.7861 56.324 25.2601 56.792 25.6321 57.368V55.586H27.3781V64.73C27.3781 65.414 27.2521 66.02 27.0001 66.548C26.7481 67.076 26.3941 67.52 25.9381 67.88C25.4941 68.252 24.9661 68.534 24.3541 68.726C23.7421 68.918 23.0821 69.014 22.3741 69.014C21.3301 69.014 20.4601 68.834 19.7641 68.474C19.0801 68.126 18.5041 67.634 18.0361 66.998L19.1521 65.954C19.5121 66.458 19.9741 66.842 20.5381 67.106C21.1141 67.37 21.7261 67.502 22.3741 67.502C22.7821 67.502 23.1661 67.448 23.5261 67.34C23.8981 67.232 24.2221 67.064 24.4981 66.836C24.7741 66.608 24.9901 66.32 25.1461 65.972C25.3141 65.624 25.3981 65.21 25.3981 64.73V63.29C25.0621 63.866 24.6001 64.31 24.0121 64.622C23.4241 64.934 22.8061 65.09 22.1581 65.09ZM22.8061 63.488C23.1061 63.488 23.3941 63.44 23.6701 63.344C23.9461 63.236 24.1981 63.098 24.4261 62.93C24.6661 62.75 24.8701 62.552 25.0381 62.336C25.2061 62.108 25.3261 61.868 25.3981 61.616V59.15C25.2781 58.85 25.1221 58.58 24.9301 58.34C24.7381 58.088 24.5161 57.872 24.2641 57.692C24.0241 57.512 23.7661 57.374 23.4901 57.278C23.2141 57.17 22.9381 57.116 22.6621 57.116C22.2301 57.116 21.8401 57.212 21.4921 57.404C21.1561 57.584 20.8681 57.83 20.6281 58.142C20.3881 58.442 20.2021 58.784 20.0701 59.168C19.9381 59.552 19.8721 59.948 19.8721 60.356C19.8721 60.788 19.9441 61.196 20.0881 61.58C20.2441 61.952 20.4541 62.282 20.7181 62.57C20.9821 62.846 21.2881 63.068 21.6361 63.236C21.9961 63.404 22.3861 63.488 22.8061 63.488ZM29.7525 65V55.586H31.7325V65H29.7525ZM29.7525 54.038V51.86H31.7325V54.038H29.7525ZM39.3498 64.514C39.0978 64.634 38.7498 64.772 38.3058 64.928C37.8618 65.072 37.3878 65.144 36.8838 65.144C36.5718 65.144 36.2778 65.102 36.0018 65.018C35.7258 64.934 35.4798 64.808 35.2638 64.64C35.0598 64.472 34.8978 64.256 34.7778 63.992C34.6578 63.716 34.5978 63.386 34.5978 63.002V57.116H33.3558V55.586H34.5978V52.49H36.5778V55.586H38.6298V57.116H36.5778V62.372C36.6018 62.708 36.7038 62.954 36.8838 63.11C37.0758 63.254 37.3098 63.326 37.5858 63.326C37.8618 63.326 38.1258 63.278 38.3778 63.182C38.6298 63.086 38.8158 63.008 38.9358 62.948L39.3498 64.514ZM43.2232 65.18C42.7672 65.18 42.3412 65.108 41.9452 64.964C41.5612 64.808 41.2252 64.598 40.9372 64.334C40.6612 64.07 40.4392 63.758 40.2712 63.398C40.1152 63.038 40.0372 62.648 40.0372 62.228C40.0372 61.784 40.1332 61.382 40.3252 61.022C40.5172 60.662 40.7872 60.35 41.1352 60.086C41.4952 59.822 41.9152 59.618 42.3952 59.474C42.8872 59.33 43.4272 59.258 44.0152 59.258C44.4592 59.258 44.8972 59.3 45.3292 59.384C45.7612 59.456 46.1512 59.558 46.4992 59.69V59.042C46.4992 58.346 46.3012 57.806 45.9052 57.422C45.5092 57.026 44.9392 56.828 44.1952 56.828C43.6912 56.828 43.1932 56.924 42.7012 57.116C42.2212 57.296 41.7232 57.56 41.2072 57.908L40.5952 56.648C41.8072 55.832 43.0672 55.424 44.3752 55.424C45.6712 55.424 46.6792 55.754 47.3992 56.414C48.1192 57.074 48.4792 58.022 48.4792 59.258V62.66C48.4792 63.08 48.6532 63.296 49.0012 63.308V65C48.8092 65.036 48.6412 65.06 48.4972 65.072C48.3652 65.084 48.2332 65.09 48.1012 65.09C47.7172 65.09 47.4172 64.994 47.2012 64.802C46.9972 64.61 46.8712 64.364 46.8232 64.064L46.7692 63.47C46.3492 64.022 45.8272 64.448 45.2032 64.748C44.5912 65.036 43.9312 65.18 43.2232 65.18ZM43.7632 63.722C44.2432 63.722 44.6932 63.638 45.1132 63.47C45.5452 63.29 45.8812 63.044 46.1212 62.732C46.3732 62.516 46.4992 62.288 46.4992 62.048V60.806C46.1632 60.674 45.8032 60.572 45.4192 60.5C45.0472 60.428 44.6812 60.392 44.3212 60.392C43.6132 60.392 43.0312 60.548 42.5752 60.86C42.1312 61.16 41.9092 61.562 41.9092 62.066C41.9092 62.534 42.0832 62.93 42.4312 63.254C42.7792 63.566 43.2232 63.722 43.7632 63.722ZM50.8994 51.86H52.8794V62.282C52.8794 62.63 52.9694 62.906 53.1494 63.11C53.3294 63.302 53.5814 63.398 53.9054 63.398C54.0374 63.398 54.1874 63.374 54.3554 63.326C54.5354 63.278 54.7034 63.224 54.8594 63.164L55.1474 64.712C54.8594 64.844 54.5174 64.946 54.1214 65.018C53.7254 65.102 53.3714 65.144 53.0594 65.144C52.3754 65.144 51.8414 64.958 51.4574 64.586C51.0854 64.214 50.8994 63.686 50.8994 63.002V51.86ZM59.6222 58.52C59.6222 57.752 59.7602 56.99 60.0362 56.234C60.3122 55.466 60.7142 54.782 61.2422 54.182C61.7822 53.57 62.4362 53.078 63.2042 52.706C63.9722 52.334 64.8422 52.148 65.8142 52.148C66.9782 52.148 67.9742 52.406 68.8022 52.922C69.6302 53.438 70.2542 54.11 70.6742 54.938L69.0902 56C68.9102 55.616 68.6942 55.292 68.4422 55.028C68.1902 54.764 67.9142 54.554 67.6142 54.398C67.3142 54.242 67.0022 54.134 66.6782 54.074C66.3542 54.002 66.0422 53.966 65.7422 53.966C65.0702 53.966 64.4822 54.104 63.9782 54.38C63.4742 54.644 63.0482 54.998 62.7002 55.442C62.3642 55.886 62.1062 56.384 61.9262 56.936C61.7582 57.488 61.6742 58.04 61.6742 58.592C61.6742 59.216 61.7762 59.81 61.9802 60.374C62.1842 60.938 62.4662 61.436 62.8262 61.868C63.1982 62.3 63.6362 62.648 64.1402 62.912C64.6442 63.164 65.1962 63.29 65.7962 63.29C66.1082 63.29 66.4262 63.254 66.7502 63.182C67.0862 63.098 67.4042 62.972 67.7042 62.804C68.0162 62.624 68.2982 62.402 68.5502 62.138C68.8142 61.874 69.0302 61.556 69.1982 61.184L70.8722 62.138C70.6682 62.618 70.3802 63.044 70.0082 63.416C69.6362 63.776 69.2162 64.082 68.7482 64.334C68.2802 64.586 67.7822 64.778 67.2542 64.91C66.7382 65.042 66.2282 65.108 65.7242 65.108C64.8242 65.108 64.0022 64.916 63.2582 64.532C62.5142 64.148 61.8722 63.65 61.3322 63.038C60.7922 62.414 60.3722 61.712 60.0722 60.932C59.7722 60.14 59.6222 59.336 59.6222 58.52ZM76.7149 65.18C75.9709 65.18 75.2989 65.048 74.6989 64.784C74.1109 64.52 73.6069 64.166 73.1869 63.722C72.7669 63.278 72.4429 62.762 72.2149 62.174C71.9869 61.574 71.8729 60.95 71.8729 60.302C71.8729 59.654 71.9869 59.036 72.2149 58.448C72.4429 57.848 72.7669 57.326 73.1869 56.882C73.6189 56.438 74.1289 56.084 74.7169 55.82C75.3169 55.556 75.9829 55.424 76.7149 55.424C77.4469 55.424 78.1069 55.556 78.6949 55.82C79.2949 56.084 79.8049 56.438 80.2249 56.882C80.6569 57.326 80.9869 57.848 81.2149 58.448C81.4429 59.036 81.5569 59.654 81.5569 60.302C81.5569 60.95 81.4429 61.574 81.2149 62.174C80.9869 62.762 80.6569 63.278 80.2249 63.722C79.8049 64.166 79.2949 64.52 78.6949 64.784C78.1069 65.048 77.4469 65.18 76.7149 65.18ZM73.9069 60.32C73.9069 60.776 73.9789 61.196 74.1229 61.58C74.2669 61.964 74.4649 62.3 74.7169 62.588C74.9689 62.864 75.2629 63.086 75.5989 63.254C75.9469 63.41 76.3189 63.488 76.7149 63.488C77.1109 63.488 77.4769 63.41 77.8129 63.254C78.1609 63.086 78.4609 62.858 78.7129 62.57C78.9649 62.282 79.1629 61.946 79.3069 61.562C79.4509 61.178 79.5229 60.758 79.5229 60.302C79.5229 59.858 79.4509 59.444 79.3069 59.06C79.1629 58.664 78.9649 58.322 78.7129 58.034C78.4609 57.746 78.1609 57.524 77.8129 57.368C77.4769 57.2 77.1109 57.116 76.7149 57.116C76.3309 57.116 75.9649 57.2 75.6169 57.368C75.2809 57.536 74.9869 57.764 74.7349 58.052C74.4829 58.34 74.2789 58.682 74.1229 59.078C73.9789 59.462 73.9069 59.876 73.9069 60.32ZM97.713 65H95.733V59.726C95.733 58.85 95.589 58.208 95.301 57.8C95.013 57.392 94.593 57.188 94.041 57.188C93.477 57.188 92.961 57.398 92.493 57.818C92.037 58.226 91.707 58.76 91.503 59.42V65H89.523V59.726C89.523 58.838 89.379 58.196 89.091 57.8C88.803 57.392 88.389 57.188 87.849 57.188C87.285 57.188 86.769 57.392 86.301 57.8C85.833 58.208 85.497 58.742 85.293 59.402V65H83.313V55.586H85.113V57.476C85.485 56.816 85.971 56.312 86.571 55.964C87.183 55.604 87.879 55.424 88.659 55.424C89.439 55.424 90.051 55.628 90.495 56.036C90.951 56.444 91.233 56.954 91.341 57.566C91.737 56.87 92.235 56.342 92.835 55.982C93.435 55.61 94.119 55.424 94.887 55.424C95.439 55.424 95.895 55.532 96.255 55.748C96.627 55.952 96.921 56.228 97.137 56.576C97.353 56.924 97.503 57.332 97.587 57.8C97.671 58.256 97.713 58.742 97.713 59.258V65ZM114.395 65H112.415V59.726C112.415 58.85 112.271 58.208 111.983 57.8C111.695 57.392 111.275 57.188 110.723 57.188C110.159 57.188 109.643 57.398 109.175 57.818C108.719 58.226 108.389 58.76 108.185 59.42V65H106.205V59.726C106.205 58.838 106.061 58.196 105.773 57.8C105.485 57.392 105.071 57.188 104.531 57.188C103.967 57.188 103.451 57.392 102.983 57.8C102.515 58.208 102.179 58.742 101.975 59.402V65H99.9946V55.586H101.795V57.476C102.167 56.816 102.653 56.312 103.253 55.964C103.865 55.604 104.561 55.424 105.341 55.424C106.121 55.424 106.733 55.628 107.177 56.036C107.633 56.444 107.915 56.954 108.023 57.566C108.419 56.87 108.917 56.342 109.517 55.982C110.117 55.61 110.801 55.424 111.569 55.424C112.121 55.424 112.577 55.532 112.937 55.748C113.309 55.952 113.603 56.228 113.819 56.576C114.035 56.924 114.185 57.332 114.269 57.8C114.353 58.256 114.395 58.742 114.395 59.258V65ZM120.942 65.18C120.21 65.18 119.544 65.054 118.944 64.802C118.344 64.538 117.828 64.184 117.396 63.74C116.976 63.296 116.646 62.78 116.406 62.192C116.178 61.604 116.064 60.98 116.064 60.32C116.064 59.66 116.178 59.036 116.406 58.448C116.646 57.848 116.976 57.326 117.396 56.882C117.828 56.426 118.344 56.072 118.944 55.82C119.544 55.556 120.216 55.424 120.96 55.424C121.692 55.424 122.352 55.556 122.94 55.82C123.54 56.084 124.05 56.438 124.47 56.882C124.89 57.314 125.208 57.824 125.424 58.412C125.652 58.988 125.766 59.594 125.766 60.23C125.766 60.374 125.76 60.512 125.748 60.644C125.736 60.764 125.724 60.866 125.712 60.95H118.17C118.206 61.37 118.302 61.748 118.458 62.084C118.626 62.42 118.836 62.714 119.088 62.966C119.352 63.206 119.646 63.392 119.97 63.524C120.306 63.656 120.654 63.722 121.014 63.722C121.278 63.722 121.536 63.692 121.788 63.632C122.052 63.56 122.292 63.464 122.508 63.344C122.724 63.212 122.916 63.056 123.084 62.876C123.252 62.696 123.384 62.498 123.48 62.282L125.172 62.768C124.848 63.476 124.308 64.058 123.552 64.514C122.808 64.958 121.938 65.18 120.942 65.18ZM123.804 59.582C123.768 59.186 123.666 58.82 123.498 58.484C123.342 58.148 123.138 57.866 122.886 57.638C122.634 57.398 122.34 57.212 122.004 57.08C121.668 56.948 121.314 56.882 120.942 56.882C120.57 56.882 120.216 56.948 119.88 57.08C119.556 57.212 119.268 57.398 119.016 57.638C118.764 57.866 118.56 58.148 118.404 58.484C118.248 58.82 118.152 59.186 118.116 59.582H123.804ZM132.673 57.296C131.905 57.32 131.221 57.5 130.621 57.836C130.033 58.16 129.613 58.628 129.361 59.24V65H127.381V55.586H129.217V57.692C129.541 57.044 129.961 56.528 130.477 56.144C131.005 55.748 131.569 55.532 132.169 55.496C132.289 55.496 132.385 55.496 132.457 55.496C132.541 55.496 132.613 55.502 132.673 55.514V57.296ZM133.027 60.284C133.027 59.624 133.141 59 133.369 58.412C133.597 57.824 133.921 57.308 134.341 56.864C134.773 56.42 135.289 56.072 135.889 55.82C136.489 55.556 137.161 55.424 137.905 55.424C138.877 55.424 139.711 55.64 140.407 56.072C141.115 56.492 141.643 57.056 141.991 57.764L140.065 58.376C139.837 57.98 139.531 57.674 139.147 57.458C138.763 57.23 138.337 57.116 137.869 57.116C137.473 57.116 137.101 57.194 136.753 57.35C136.417 57.506 136.123 57.728 135.871 58.016C135.619 58.292 135.421 58.622 135.277 59.006C135.133 59.39 135.061 59.816 135.061 60.284C135.061 60.74 135.133 61.166 135.277 61.562C135.433 61.946 135.637 62.282 135.889 62.57C136.153 62.858 136.453 63.086 136.789 63.254C137.137 63.41 137.503 63.488 137.887 63.488C138.127 63.488 138.367 63.458 138.607 63.398C138.847 63.326 139.063 63.23 139.255 63.11C139.459 62.99 139.633 62.852 139.777 62.696C139.933 62.54 140.047 62.372 140.119 62.192L142.063 62.768C141.751 63.476 141.229 64.058 140.497 64.514C139.765 64.958 138.901 65.18 137.905 65.18C137.173 65.18 136.507 65.048 135.907 64.784C135.307 64.52 134.791 64.166 134.359 63.722C133.939 63.266 133.609 62.744 133.369 62.156C133.141 61.568 133.027 60.944 133.027 60.284ZM147.872 65.18C147.14 65.18 146.474 65.054 145.874 64.802C145.274 64.538 144.758 64.184 144.326 63.74C143.906 63.296 143.576 62.78 143.336 62.192C143.108 61.604 142.994 60.98 142.994 60.32C142.994 59.66 143.108 59.036 143.336 58.448C143.576 57.848 143.906 57.326 144.326 56.882C144.758 56.426 145.274 56.072 145.874 55.82C146.474 55.556 147.146 55.424 147.89 55.424C148.622 55.424 149.282 55.556 149.87 55.82C150.47 56.084 150.98 56.438 151.4 56.882C151.82 57.314 152.138 57.824 152.354 58.412C152.582 58.988 152.696 59.594 152.696 60.23C152.696 60.374 152.69 60.512 152.678 60.644C152.666 60.764 152.654 60.866 152.642 60.95H145.1C145.136 61.37 145.232 61.748 145.388 62.084C145.556 62.42 145.766 62.714 146.018 62.966C146.282 63.206 146.576 63.392 146.9 63.524C147.236 63.656 147.584 63.722 147.944 63.722C148.208 63.722 148.466 63.692 148.718 63.632C148.982 63.56 149.222 63.464 149.438 63.344C149.654 63.212 149.846 63.056 150.014 62.876C150.182 62.696 150.314 62.498 150.41 62.282L152.102 62.768C151.778 63.476 151.238 64.058 150.482 64.514C149.738 64.958 148.868 65.18 147.872 65.18ZM150.734 59.582C150.698 59.186 150.596 58.82 150.428 58.484C150.272 58.148 150.068 57.866 149.816 57.638C149.564 57.398 149.27 57.212 148.934 57.08C148.598 56.948 148.244 56.882 147.872 56.882C147.5 56.882 147.146 56.948 146.81 57.08C146.486 57.212 146.198 57.398 145.946 57.638C145.694 57.866 145.49 58.148 145.334 58.484C145.178 58.82 145.082 59.186 145.046 59.582H150.734Z" fill="#002856"/>
</svg>
