<svg width="63" height="63" viewBox="0 0 63 63" fill="none" xmlns="http://www.w3.org/2000/svg">
<path d="M31.1446 62.4169C22.2826 62.4169 13.4207 62.4169 4.55868 62.4169C1.64725 62.4169 0 60.7569 0 57.8582C0 40.096 0 22.3209 0 4.54591C0 1.64725 1.64725 0 4.55868 0C22.3337 0 40.096 0 57.871 0C60.7697 0 62.4297 1.64725 62.4297 4.54591C62.4297 22.3209 62.4297 40.0832 62.4297 57.8582C62.4297 60.7569 60.7824 62.4169 57.871 62.4169C48.9707 62.4169 40.0577 62.4169 31.1574 62.4169H31.1446ZM29.7527 30.9403C29.9954 30.8637 30.238 30.7488 30.4806 30.7105C31.2085 30.5955 31.6171 30.1997 31.7448 29.4718C31.8214 29.076 31.9874 28.6929 32.1279 28.297C32.4088 27.5564 32.9323 27.1222 33.724 27.0712C34.5157 27.0201 35.0904 27.3904 35.4734 28.08C35.5884 28.2843 35.6395 28.5524 35.8055 28.7057C35.9842 28.8972 36.2396 29.0887 36.4822 29.1143C37.0569 29.1781 37.657 29.1143 38.2316 29.1398C39.3554 29.1781 40.2237 29.8677 40.4918 30.9403C40.7344 31.9491 40.2747 32.9706 39.3043 33.5197C39.1127 33.6219 38.9212 33.7113 38.7296 33.8134C35.9331 35.3202 33.1239 36.8142 30.3401 38.3593C27.7607 39.8023 25.1685 39.9555 22.5253 38.6147C22.1932 38.4487 22.0017 38.4743 21.7336 38.7041C20.9802 39.3553 20.2268 40.0066 19.4351 40.6195C19.0903 40.8877 19.0137 41.1431 19.1031 41.5517C20.2651 47.5661 21.4143 53.5805 22.538 59.5949C22.6402 60.1695 22.819 60.3483 23.4319 60.3483C34.9116 60.3227 46.4041 60.3355 57.8838 60.3355C59.5566 60.3355 60.31 59.5821 60.31 57.9349C60.31 41.6411 60.31 25.3473 60.31 9.05352V8.38951H2.08142V8.96413C2.08142 25.3218 2.08142 41.6794 2.08142 58.0498C2.08142 58.2285 2.08142 58.3946 2.09418 58.5733C2.20911 59.2629 2.52834 59.7992 3.21789 60.1312C3.26897 59.863 3.30728 59.6843 3.32005 59.48C3.76698 55.4065 4.22668 51.3458 4.66084 47.2724C4.95453 44.4887 5.93778 41.9859 7.71273 39.815C7.91704 39.5724 8.12135 39.317 8.3512 39.0489C8.17243 38.8573 8.04473 38.7041 7.8915 38.5509C7.20195 37.8613 6.49963 37.1845 5.83562 36.4695C3.03912 33.4559 3.80529 28.6418 7.4318 26.803C8.15966 26.4327 8.32566 26.0368 8.32566 25.2962C8.32566 23.8022 8.23627 22.2826 8.52997 20.8397C9.21952 17.5324 12.4119 15.3105 15.7064 15.6681C19.1669 16.0384 21.7591 18.8349 21.8229 22.3082C21.8485 23.9299 21.8229 25.5644 21.8229 27.1861C21.8229 27.3649 21.8485 27.5309 21.8612 27.7607C23.1893 26.803 24.4662 26.9052 25.0153 28.1183C25.4239 29.0377 25.973 29.3441 26.8924 29.1781C26.9818 29.1654 27.0712 29.1781 27.1478 29.1781C28.6801 29.1781 29.1781 29.5229 29.7144 30.9914L29.7527 30.9403ZM60.3355 6.20594C60.3355 5.65685 60.3355 5.14608 60.3355 4.6353C60.3355 2.78373 59.6332 2.08142 57.7944 2.08142C40.0704 2.08142 22.3465 2.08142 4.62253 2.08142C4.43099 2.08142 4.22668 2.08142 4.03514 2.08142C3.12851 2.11972 2.2985 2.70712 2.1708 3.60098C2.05588 4.45653 2.14526 5.35039 2.14526 6.20594H60.3355ZM20.5843 60.31C19.4351 54.27 18.2858 48.2556 17.1366 42.2029C14.3401 43.1606 11.9394 42.5477 9.87076 40.5174C8.26181 42.2795 7.21472 44.246 6.89549 46.5318C6.49963 49.4943 6.19317 52.4695 5.86116 55.432C5.68239 57.041 5.50362 58.6499 5.32485 60.2972H9.56429C10.5475 55.713 11.518 51.1798 12.5013 46.5956C13.2036 46.7488 13.8421 46.8893 14.4422 47.017C14.4678 47.1192 14.4933 47.1575 14.4805 47.1958C14.4422 47.4129 14.4039 47.6172 14.3528 47.8342C13.8931 49.9795 13.1397 52.0992 14.0336 54.3083C14.1102 54.4871 14.123 54.6914 14.1613 54.883C14.5699 56.6962 14.9658 58.4967 15.3744 60.31H20.5588H20.5843ZM17.724 28.1183C17.4303 30.0081 16.3193 31.2085 14.7359 31.1829C14.0591 31.1829 13.3313 30.9275 12.7439 30.5828C11.85 30.072 11.518 29.127 11.4159 28.1055C10.9817 28.1055 10.5986 28.1055 10.2028 28.1055C7.12534 28.2076 5.22269 31.6043 6.8061 34.2348C7.31688 35.0776 8.10858 35.7544 8.68321 36.4184C9.47491 35.6395 10.1645 34.9499 11.02 34.0943C10.5986 33.7751 10.1134 33.4176 9.70476 33.1111C10.2283 32.5365 10.6625 32.0512 11.1349 31.5277C12.1948 32.5876 13.2547 33.6219 14.2634 34.6817C14.5827 35.0265 14.8125 35.0265 15.1828 34.7584C16.4087 33.9028 17.6218 33.0089 18.9115 32.2939C19.9969 31.6937 20.4311 30.7232 20.8652 29.7017C20.0352 28.7057 19.1031 27.9906 17.6984 28.1183H17.724ZM10.3432 38.0912C10.6625 38.3849 10.9945 38.6658 11.3009 38.9723C13.3568 41.0281 15.5915 41.1431 17.8261 39.2915C20.8908 36.7504 23.9427 34.1837 27.0073 31.6426C27.135 31.5405 27.2882 31.4766 27.4287 31.4C27.3904 31.3489 27.3393 31.2851 27.301 31.234C26.6115 31.234 25.9219 31.2085 25.2324 31.234C24.5811 31.2595 24.1597 30.9914 23.9171 30.404C23.7894 30.0975 23.6107 29.8166 23.4063 29.4335C22.87 30.5061 22.3976 31.4766 21.8868 32.4216C21.7208 32.728 21.4782 33.06 21.1972 33.2516C19.2435 34.5796 17.277 35.8821 15.3105 37.1845C14.6593 37.6187 14.2379 37.5804 13.7016 37.0185C13.3185 36.6227 12.9865 36.163 12.6673 35.7927C11.8245 36.6482 11.1349 37.325 10.356 38.1039L10.3432 38.0912ZM23.8277 36.9547C25.7559 37.7081 27.467 37.6059 29.127 36.661C30.7232 35.7544 32.2939 34.7967 33.9028 33.9283C35.2691 33.1877 36.6865 32.5365 38.0656 31.8214C38.2189 31.7448 38.321 31.566 38.4487 31.4383C38.27 31.3617 38.0912 31.234 37.9124 31.2212C37.4144 31.1957 36.9164 31.1574 36.4184 31.2212C35.2436 31.3617 34.3753 31.0552 34.0177 29.8294C34.005 29.7783 33.9156 29.7527 33.839 29.7017C33.673 30.1869 33.4942 30.6466 33.3665 31.1318C33.2005 31.7831 32.8174 32.1662 32.1662 32.3577C31.1702 32.6514 30.2124 33.0728 29.2037 33.3026C26.9562 33.8262 25.6665 35.6522 23.815 36.9547H23.8277ZM19.7543 26.2667C19.7543 24.9004 19.7798 23.5596 19.7543 22.2188C19.7032 19.9203 17.9666 18.0432 15.6553 17.724C13.4717 17.4175 11.1605 18.7838 10.6752 20.9929C10.3177 22.6019 10.4198 24.3257 10.3049 25.9858H11.4414C11.4414 25.4878 11.4925 25.0025 11.4414 24.5428C11.2115 22.985 11.8628 21.6697 12.5906 20.38C13.0248 19.6138 13.957 19.5244 14.3784 20.2651C15.0807 21.4782 16.115 21.9251 17.4686 21.874C18.3497 21.8357 18.7327 22.2443 18.72 23.1382C18.6944 24.0831 18.6306 25.0153 18.5667 26.0241C18.8732 26.0879 19.2818 26.1773 19.7543 26.2795V26.2667ZM16.6258 24.1214C15.5787 23.7 14.621 23.3042 13.4973 22.8573C13.5484 23.6107 13.4973 24.364 13.6888 25.0664C13.8421 25.6921 14.4294 25.9985 15.0935 26.0113C16.0895 26.0113 16.6769 25.2451 16.6258 24.1214ZM11.6968 60.2972H13.2547C12.9993 59.1863 12.7566 58.1264 12.5268 57.0665C12.4885 57.0665 12.4374 57.0665 12.3991 57.0665C12.1693 58.1264 11.9394 59.199 11.7096 60.2844L11.6968 60.2972ZM13.5867 27.8756C13.4973 28.5524 13.8037 29.0249 14.4039 29.127C15.0041 29.2164 15.451 28.8333 15.5404 28.1693C14.8891 28.0672 14.2379 27.9778 13.5739 27.8756H13.5867Z" fill="#222222"/>
<path d="M33.2523 26.0115C30.6091 26.0115 27.9658 26.0115 25.3225 26.0115C24.2627 26.0115 23.9307 25.6795 23.9307 24.6068C23.9307 20.3418 23.9307 16.0641 23.9307 11.7991C23.9307 10.7392 24.2627 10.4072 25.3353 10.4072C30.6474 10.4072 35.9595 10.4072 41.2588 10.4072C42.3186 10.4072 42.6506 10.7392 42.6506 11.8119C42.6506 16.0768 42.6506 20.3546 42.6506 24.6196C42.6506 25.6795 42.3059 26.0115 41.246 26.0115C38.5772 26.0115 35.9212 26.0115 33.2523 26.0115ZM36.4192 12.5142C36.4192 13.8805 36.4319 15.2085 36.4192 16.5238C36.4064 17.4559 35.6402 18.005 34.8868 17.5198C33.7631 16.7919 32.8054 16.843 31.6945 17.5198C30.9666 17.9795 30.2004 17.4432 30.1749 16.5621C30.1494 15.6299 30.1749 14.6978 30.1749 13.7656C30.1749 13.3442 30.1749 12.9228 30.1749 12.5142H26.0504V23.8662H40.5437V12.5142H36.4192ZM34.2994 14.9531V12.5397H32.3074V14.9659C32.9842 14.4679 33.6227 14.4934 34.2994 14.9531Z" fill="#222222"/>
<path d="M56.2115 39.4955C58.2546 39.636 58.2674 39.636 58.2546 41.6918C58.2546 42.2665 58.2546 42.8666 58.1269 43.4285C57.8205 44.7693 56.6457 45.7397 55.2793 45.7525C52.8404 45.7908 50.3887 45.778 47.9497 45.7525C47.2218 45.7525 46.826 45.3439 46.826 44.616C46.8132 43.3008 46.8132 41.9728 46.826 40.6575C46.826 39.9041 47.2346 39.5338 48.0135 39.521C49.0479 39.521 50.095 39.5338 51.1293 39.5083C51.3974 39.5083 51.6911 39.355 51.9082 39.1763C52.3041 38.8443 52.6488 38.4612 53.0192 38.0909C53.581 37.5162 54.2322 37.2608 55.024 37.5673C55.7901 37.861 56.1604 38.4612 56.186 39.2784C56.186 39.3423 56.2115 39.4061 56.2243 39.4955H56.2115ZM56.1732 41.7046C55.6113 41.6152 55.0112 41.6791 54.6281 41.4237C54.2706 41.1938 54.1429 40.6192 53.8875 40.134C53.6449 40.4404 53.1724 40.7852 53.0958 41.2066C52.9553 41.9983 53.0575 42.8283 53.0575 43.6966C53.8236 43.6966 54.5387 43.7349 55.241 43.6966C55.8029 43.6583 56.1221 43.2752 56.1732 42.7134C56.1987 42.3942 56.1732 42.0621 56.1732 41.7301V41.7046ZM48.9329 41.6535V43.6583H50.925V41.6535H48.9329Z" fill="#222222"/>
<path d="M46.7872 17.6864C46.7872 16.7414 47.1193 16.0519 47.9748 15.7199C48.8559 15.3879 49.5199 15.7582 50.1073 16.3967C50.3627 16.6648 50.6564 16.8947 50.8862 17.1884C51.2182 17.597 51.6013 17.7247 52.1249 17.6991C53.057 17.6608 53.9892 17.6864 54.9214 17.6991C55.7769 17.6991 56.16 18.0822 56.1728 18.9122C56.1728 20.1892 56.1728 21.4661 56.1728 22.7431C56.1728 23.5475 55.7769 23.9306 54.9724 23.9306C52.5973 23.9306 50.2095 23.9562 47.8343 23.9306C46.0977 23.9179 44.7824 22.5643 44.7441 20.8277C44.7441 20.2275 44.7441 19.6146 44.7441 19.0144C44.7441 18.0695 45.1017 17.7119 46.0339 17.7119C46.2637 17.7119 46.5063 17.7119 46.8128 17.7119L46.7872 17.6864ZM46.8128 19.8316C46.8128 20.1892 46.7872 20.5212 46.8128 20.8404C46.8511 21.415 47.1831 21.7854 47.745 21.8237C48.4473 21.8747 49.1624 21.8237 49.9285 21.8237C49.9285 21.1469 49.8647 20.5212 49.9413 19.9083C50.0434 19.0527 49.4944 18.6696 48.9197 18.2099C48.8304 19.5379 48.8304 19.5379 46.8128 19.8189V19.8316ZM52.0355 21.8109H54.0403V19.8189H52.0355V21.8109Z" fill="#222222"/>
<path d="M55.2922 28.5909C54.9985 29.1527 54.807 29.7912 54.4111 30.2509C53.6066 31.1831 52.7 32.0259 51.8189 32.8814C51.2315 33.456 50.7207 33.4433 50.1206 32.8559C49.265 32.0259 48.4222 31.1831 47.5922 30.3275C46.6601 29.3571 46.5579 28.029 47.3113 27.0202C48.0902 25.9859 49.431 25.705 50.6058 26.3818C50.9378 26.5733 51.1421 26.4712 51.4103 26.3179C53.0958 25.4113 55.1134 26.5989 55.1262 28.5015C55.1773 28.527 55.2283 28.5526 55.2794 28.5781L55.2922 28.5909ZM50.9889 30.8511C51.6018 30.2126 52.1254 29.6635 52.6362 29.1144C52.7128 29.0378 52.8405 28.974 52.8532 28.8846C52.8915 28.6675 52.8788 28.4377 52.8915 28.2078C52.6872 28.2333 52.4702 28.2461 52.2658 28.2844C52.1892 28.2972 52.1381 28.3993 52.0743 28.4632C51.1421 29.3698 50.8101 29.3698 49.878 28.4632C49.8141 28.3993 49.763 28.2972 49.6864 28.2844C49.4821 28.2461 49.265 28.2333 49.0607 28.2206C49.0607 28.4504 48.9841 28.7441 49.099 28.8846C49.6609 29.5358 50.2738 30.136 50.9761 30.8638L50.9889 30.8511Z" fill="#222222"/>
<path d="M41.1809 34.2979C42.0875 34.9364 43.1473 34.5661 44.2711 34.3618C45.2543 34.183 46.0588 34.7959 46.5185 35.7026C47.0037 36.6347 46.9399 37.5924 46.2503 38.3714C45.3309 39.4057 44.3349 40.3634 43.3261 41.3211C42.892 41.7425 42.3556 41.717 41.9215 41.2956C40.9382 40.3506 39.955 39.4057 39.0484 38.3841C38.3588 37.6052 38.2822 36.6603 38.7419 35.7153C39.1888 34.7959 39.9805 34.3618 41.1681 34.2852L41.1809 34.2979ZM42.6621 39.2014C43.3134 38.5118 43.8624 37.9117 44.4243 37.3115C44.6414 37.0817 44.8968 36.8646 44.5775 36.5453C44.2583 36.2261 44.0412 36.4815 43.8114 36.6986C42.7515 37.7074 42.56 37.7074 41.4746 36.6986C41.4235 36.6603 41.3852 36.5709 41.3341 36.5709C41.1298 36.5453 40.9127 36.5581 40.7084 36.5453C40.7084 36.7497 40.6445 37.0434 40.7595 37.1583C41.3341 37.8223 41.9598 38.448 42.6621 39.1886V39.2014Z" fill="#222222"/>
<path d="M27.0467 57.208C25.3229 57.208 23.9055 55.7906 23.931 54.0668C23.9438 52.3684 25.3356 50.9893 27.0467 50.9766C28.7451 50.9766 30.1625 52.3684 30.1625 54.054C30.1625 55.7906 28.7706 57.208 27.0467 57.208ZM28.0811 54.0668C28.0683 53.5049 27.5958 53.0452 27.034 53.058C26.4721 53.058 26.0124 53.5304 26.0124 54.0923C26.0124 54.6797 26.5104 55.1649 27.085 55.1394C27.6469 55.1139 28.0938 54.6286 28.0811 54.0795V54.0668Z" fill="#222222"/>
<path d="M30.1622 45.778C30.1622 47.5019 28.732 48.9065 26.9954 48.881C25.2971 48.8554 23.918 47.4508 23.918 45.7525C23.918 44.0286 25.3481 42.6367 27.0848 42.6495C28.7703 42.6623 30.175 44.0797 30.1622 45.778ZM27.0082 46.7996C27.57 46.8123 28.0425 46.3654 28.068 45.8035C28.0936 45.2289 27.6083 44.7181 27.0337 44.7181C26.4719 44.7181 26.0122 45.1778 25.9994 45.7397C25.9994 46.3016 26.4463 46.774 27.0082 46.7868V46.7996Z" fill="#222222"/>
<path d="M50.9382 52.0605V54.0653H38.5391V52.0605H50.9382Z" fill="#222222"/>
<path d="M32.2822 58.2021V56.1973H41.5656V58.2021H32.2822Z" fill="#222222"/>
<path d="M32.292 47.873H40.5283V49.8778H32.292V47.873Z" fill="#222222"/>
<path d="M42.6374 43.7354V45.7274H36.457V43.7354H42.6374Z" fill="#222222"/>
<path d="M32.2676 54.0399V52.0479H36.3666V54.0399H32.2676Z" fill="#222222"/>
<path d="M46.7884 47.8975V49.8895H42.6895V47.8975H46.7884Z" fill="#222222"/>
<path d="M32.2676 45.7147V43.7227H34.2851V45.7147H32.2676Z" fill="#222222"/>
<path d="M45.7127 58.2422H43.7334V56.2246H45.7127V58.2422Z" fill="#222222"/>
<path d="M7.25416 5.19781C6.69231 5.18504 6.23261 4.6998 6.24538 4.13795C6.25815 3.5761 6.74338 3.1164 7.30524 3.12917C7.86709 3.14194 8.32679 3.62717 8.31402 4.18903C8.30125 4.75088 7.81602 5.21058 7.25416 5.19781Z" fill="#222222"/>
<path d="M5.19781 4.18903C5.18504 4.75088 4.6998 5.21058 4.13795 5.19781C3.5761 5.18504 3.1164 4.6998 3.12917 4.13795C3.14194 3.5761 3.62717 3.1164 4.18903 3.12917C4.75088 3.14194 5.21058 3.62717 5.19781 4.18903Z" fill="#222222"/>
<path d="M10.3957 3.12891C10.9575 3.12891 11.43 3.60137 11.43 4.16323C11.43 4.72508 10.9575 5.19755 10.3957 5.19755C9.8338 5.19755 9.36133 4.72508 9.36133 4.16323C9.36133 3.60137 9.82103 3.12891 10.3957 3.12891Z" fill="#222222"/>
<path d="M37.4785 22.8564V20.8516H39.4961V22.8564H37.4785Z" fill="#222222"/>
<path d="M36.3945 20.8516V22.8308H34.377V20.8516H36.3945Z" fill="#222222"/>
</svg>
